# xmcd
# 
# Track frame offsets:
#     150
#     19482
#     34140
#     57384
# 
# Disc length: 957
# 
# Revision: 0
# Processed by: cddbd v1.5.2PL0 Copyright (c) Steve Scherf et al.
# Submitted via: fre:ac v1.0.17
# 
DISCID=3203bb04
DTITLE=The Arctic Flow - Dreams You'll Never Find
DYEAR=2012
DGENRE=Indiepo
TTITLE0=Just Say Hello
TTITLE1=Friends for Summer
TTITLE2=Cruel Kids
TTITLE3=Deams You'll Never Find
EXTD=
EXTT0=
EXTT1=
EXTT2=
EXTT3=
PLAYORDER=
